<svg width="260" height="48" viewBox="0 0 260 48" fill="none" xmlns="http://www.w3.org/2000/svg">
<g clip-path="url(#clip0_2096_4)">
<rect width="48" height="48" fill="white"/>
<g filter="url(#filter0_f_2096_4)">
<circle cx="50" cy="49" r="19" fill="#B9F2FF"/>
</g>
<g filter="url(#filter1_f_2096_4)">
<circle cx="-2" cy="54" r="17" fill="#B9F2FF"/>
</g>
<g filter="url(#filter2_f_2096_4)">
<circle cx="21" cy="61" r="17" fill="#B9F2FF"/>
</g>
<g filter="url(#filter3_f_2096_4)">
<circle cx="54" cy="26" r="9" fill="#B9F2FF"/>
</g>
<path d="M15.0002 9.49964C10.8581 9.49964 7.50032 12.8576 7.50023 16.9996V30.9996C7.50023 35.1418 10.8581 38.4996 15.0002 38.4996H33.0002C37.1423 38.4996 40.5002 35.1417 40.5002 30.9996V25.9996C40.5002 25.1713 39.8285 24.4997 39.0002 24.4996C38.1719 24.4996 37.5003 25.1713 37.5002 25.9996V30.9996C37.5002 33.4849 35.4854 35.4996 33.0002 35.4996H15.0002C12.515 35.4996 10.5002 33.4849 10.5002 30.9996V16.9996C10.5003 14.5144 12.515 12.4996 15.0002 12.4996H22.0002C22.8286 12.4996 23.5002 11.828 23.5002 10.9996C23.5002 10.1713 22.8285 9.49973 22.0002 9.49964H15.0002ZM24.4827 19.7926C24.3496 19.2997 23.6498 19.2996 23.5168 19.7926L23.176 21.0592C22.898 22.0915 22.0921 22.8984 21.0598 23.1764L19.7932 23.5172C19.3 23.6501 19.2999 24.3502 19.7932 24.483L21.0598 24.8239C22.0919 25.1019 22.898 25.908 23.176 26.9401L23.5168 28.2067C23.6497 28.7 24.3498 28.6999 24.4827 28.2067L24.8235 26.9401C25.1015 25.9078 25.9084 25.1018 26.9407 24.8239L28.2073 24.483C28.7003 24.3501 28.7002 23.6503 28.2073 23.5172L26.9407 23.1764C25.9082 22.8984 25.1015 22.0916 24.8235 21.0592L24.4827 19.7926ZM34.7239 6.6891C34.5243 5.94972 33.4751 5.94961 33.2756 6.6891L32.4778 9.65492C32.1071 11.0314 31.0311 12.1066 29.6545 12.4772L26.6897 13.276C25.9499 13.4754 25.9498 14.525 26.6897 14.7243L29.6545 15.5221C31.0311 15.8927 32.1071 16.9688 32.4778 18.3453L33.2756 21.3102C33.4749 22.0501 34.5245 22.0499 34.7239 21.3102L35.5227 18.3453C35.8933 16.9688 36.9684 15.8928 38.345 15.5221L41.3108 14.7243C42.0503 14.5248 42.0502 13.4756 41.3108 13.276L38.345 12.4772C36.9685 12.1065 35.8934 11.0313 35.5227 9.65492L34.7239 6.6891Z" fill="url(#paint0_linear_2096_4)"/>
</g>
<path d="M64.72 32.888C64.72 33.5707 64.5387 34.0933 64.176 34.456C63.8133 34.8187 63.2907 35 62.608 35H62.544C61.8613 35 61.3387 34.8187 60.976 34.456C60.6133 34.0933 60.432 33.5707 60.432 32.888V13.4C60.432 12.7173 60.6133 12.1947 60.976 11.832C61.3387 11.4693 61.8613 11.288 62.544 11.288H62.608C63.2907 11.288 63.8133 11.4693 64.176 11.832C64.5387 12.1947 64.72 12.7173 64.72 13.4V32.888ZM71.5723 32.984C71.5723 33.6453 71.4016 34.1467 71.0603 34.488C70.7189 34.8293 70.2176 35 69.5563 35H69.4923C68.8523 35 68.3509 34.8293 67.9883 34.488C67.6469 34.1467 67.4763 33.6453 67.4763 32.984V20.056C67.4763 19.3947 67.6469 18.8933 67.9883 18.552C68.3509 18.2107 68.8523 18.04 69.4923 18.04H69.5563C70.2176 18.04 70.7189 18.2107 71.0603 18.552C71.4016 18.8933 71.5723 19.3947 71.5723 20.056V32.984ZM67.4763 29.752C67.4763 27.6187 67.8709 25.624 68.6603 23.768C69.4496 21.912 70.5376 20.44 71.9243 19.352C73.3109 18.2427 74.8576 17.688 76.5643 17.688C77.6309 17.688 78.6016 17.9973 79.4763 18.616C80.3509 19.2347 81.0443 20.1307 81.5563 21.304C82.0683 22.4773 82.3243 23.864 82.3243 25.464V32.984C82.3243 33.6453 82.1536 34.1467 81.8123 34.488C81.4709 34.8293 80.9696 35 80.3083 35H80.2443C79.6043 35 79.1029 34.8293 78.7403 34.488C78.3989 34.1467 78.2283 33.6453 78.2283 32.984V25.464C78.2283 24.568 78.1003 23.8427 77.8443 23.288C77.6096 22.712 77.2789 22.296 76.8523 22.04C76.4469 21.784 75.9883 21.656 75.4763 21.656C74.7083 21.656 74.0363 21.816 73.4603 22.136C72.8843 22.456 72.4256 23 72.0843 23.768C71.7429 24.536 71.5723 25.5707 71.5723 26.872L67.4763 29.752ZM78.2283 29.752C78.2283 27.6187 78.6229 25.624 79.4123 23.768C80.2016 21.912 81.2896 20.44 82.6763 19.352C84.0629 18.2427 85.6096 17.688 87.3163 17.688C88.3829 17.688 89.3536 17.9973 90.2283 18.616C91.1029 19.2347 91.7963 20.1307 92.3083 21.304C92.8203 22.4773 93.0763 23.864 93.0763 25.464V32.984C93.0763 33.6453 92.9056 34.1467 92.5643 34.488C92.2229 34.8293 91.7216 35 91.0603 35H90.9963C90.3563 35 89.8549 34.8293 89.4923 34.488C89.1509 34.1467 88.9803 33.6453 88.9803 32.984V25.464C88.9803 24.568 88.8523 23.8427 88.5963 23.288C88.3616 22.712 88.0309 22.296 87.6043 22.04C87.1989 21.784 86.7403 21.656 86.2283 21.656C85.4603 21.656 84.7883 21.816 84.2123 22.136C83.6363 22.456 83.1776 23 82.8363 23.768C82.4949 24.536 82.3243 25.5707 82.3243 26.872L78.2283 29.752ZM112.338 32.952C112.338 33.6133 112.156 34.1253 111.794 34.488C111.452 34.8293 110.951 35 110.29 35H110.194C109.532 35 109.02 34.8293 108.658 34.488C108.316 34.1253 108.146 33.6133 108.146 32.952V29.528L109.042 26.648L108.146 23.608V20.088C108.146 19.4267 108.316 18.9253 108.658 18.584C109.02 18.2213 109.532 18.04 110.194 18.04H110.29C110.951 18.04 111.452 18.2213 111.794 18.584C112.156 18.9253 112.338 19.4267 112.338 20.088V32.952ZM103.538 31.672C104.54 31.672 105.415 31.4587 106.162 31.032C106.908 30.6053 107.484 30.008 107.89 29.24C108.295 28.4507 108.498 27.544 108.498 26.52C108.498 25.496 108.295 24.5893 107.89 23.8C107.484 23.0107 106.908 22.4027 106.162 21.976C105.415 21.5493 104.54 21.336 103.538 21.336C102.748 21.336 102.012 21.56 101.33 22.008C100.668 22.4347 100.146 23.0427 99.7617 23.832C99.3777 24.6213 99.1857 25.5173 99.1857 26.52C99.1857 27.5227 99.3777 28.4187 99.7617 29.208C100.146 29.976 100.668 30.584 101.33 31.032C101.991 31.4587 102.727 31.672 103.538 31.672ZM103.218 35.352C101.618 35.352 100.178 34.9573 98.8977 34.168C97.6177 33.3787 96.6151 32.312 95.8897 30.968C95.1644 29.6027 94.8017 28.12 94.8017 26.52C94.8017 24.92 95.1644 23.448 95.8897 22.104C96.6151 20.7387 97.6177 19.6613 98.8977 18.872C100.178 18.0827 101.618 17.688 103.218 17.688C104.796 17.688 106.14 18.1467 107.25 19.064C108.38 19.96 109.223 21.0907 109.778 22.456C110.332 23.8213 110.61 25.176 110.61 26.52C110.61 27.864 110.332 29.2187 109.778 30.584C109.223 31.9493 108.38 33.0907 107.25 34.008C106.14 34.904 104.796 35.352 103.218 35.352ZM122.493 35.352C120.893 35.352 119.453 34.9573 118.173 34.168C116.893 33.3787 115.89 32.312 115.165 30.968C114.439 29.6027 114.077 28.12 114.077 26.52C114.077 24.92 114.439 23.448 115.165 22.104C115.89 20.7387 116.893 19.6613 118.173 18.872C119.453 18.0827 120.893 17.688 122.493 17.688C124.071 17.688 125.415 18.1467 126.525 19.064C127.655 19.96 128.498 21.0907 129.053 22.456C129.607 23.8213 129.885 25.176 129.885 26.52C129.885 27.864 129.607 29.2187 129.053 30.584C128.498 31.9493 127.655 33.0907 126.525 34.008C125.415 34.904 124.071 35.352 122.493 35.352ZM122.813 31.672C123.815 31.672 124.69 31.4587 125.437 31.032C126.183 30.6053 126.759 30.008 127.165 29.24C127.57 28.4507 127.773 27.544 127.773 26.52C127.773 25.496 127.57 24.5893 127.165 23.8C126.759 23.0107 126.183 22.4027 125.437 21.976C124.69 21.5493 123.815 21.336 122.813 21.336C122.023 21.336 121.287 21.56 120.605 22.008C119.943 22.4347 119.421 23.0427 119.037 23.832C118.653 24.6213 118.461 25.5173 118.461 26.52C118.461 27.5227 118.653 28.4187 119.037 29.208C119.421 29.976 119.943 30.584 120.605 31.032C121.266 31.4587 122.002 31.672 122.813 31.672ZM115.229 39.48C114.738 39.0107 114.525 38.5307 114.589 38.04C114.653 37.5493 114.951 37.112 115.485 36.728L115.581 36.664C116.093 36.3013 116.562 36.152 116.989 36.216C117.437 36.3013 117.906 36.5573 118.397 36.984C118.909 37.432 119.485 37.7627 120.125 37.976C120.786 38.2107 121.565 38.328 122.461 38.328C123.463 38.328 124.338 38.1253 125.085 37.72C125.831 37.3147 126.407 36.7067 126.813 35.896C127.218 35.1067 127.421 34.1467 127.421 33.016V29.272L128.061 26.488L127.421 23.48V20.056C127.421 19.3947 127.591 18.8933 127.933 18.552C128.274 18.2107 128.775 18.04 129.437 18.04H129.501C130.162 18.04 130.663 18.2107 131.005 18.552C131.346 18.8933 131.517 19.3947 131.517 20.056V33.016C131.517 34.7867 131.111 36.376 130.301 37.784C129.49 39.192 128.391 40.2907 127.005 41.08C125.618 41.8907 124.103 42.296 122.461 42.296C120.967 42.296 119.613 42.04 118.397 41.528C117.202 41.0373 116.146 40.3547 115.229 39.48ZM150.314 24.536C150.506 25.4747 150.335 26.2213 149.802 26.776C149.29 27.3093 148.543 27.576 147.562 27.576H146.826C146.826 26.1253 146.623 24.9413 146.218 24.024C145.834 23.0853 145.29 22.4133 144.586 22.008C143.903 21.5813 143.093 21.368 142.154 21.368C141.066 21.368 140.149 21.5707 139.402 21.976C138.677 22.36 138.122 22.936 137.738 23.704C137.354 24.472 137.162 25.4 137.162 26.488C137.162 27.6187 137.354 28.568 137.738 29.336C138.122 30.104 138.709 30.6907 139.498 31.096C140.287 31.48 141.279 31.672 142.474 31.672C143.029 31.672 143.562 31.576 144.074 31.384C144.586 31.1707 145.055 30.872 145.482 30.488C145.973 30.0827 146.421 29.848 146.826 29.784C147.253 29.72 147.701 29.848 148.17 30.168L148.266 30.232C148.821 30.616 149.13 31.0533 149.194 31.544C149.258 32.0133 149.055 32.472 148.586 32.92C147.711 33.688 146.741 34.2853 145.674 34.712C144.629 35.1387 143.562 35.352 142.474 35.352C140.618 35.352 138.997 34.968 137.61 34.2C136.223 33.432 135.146 32.376 134.378 31.032C133.631 29.688 133.258 28.1733 133.258 26.488C133.258 24.8027 133.631 23.2987 134.378 21.976C135.146 20.632 136.202 19.5867 137.546 18.84C138.911 18.072 140.447 17.688 142.154 17.688C143.434 17.688 144.629 17.944 145.738 18.456C146.869 18.968 147.839 19.736 148.65 20.76C149.461 21.784 150.015 23.0427 150.314 24.536ZM147.306 27.576H135.914V24.248H147.306V27.576ZM178.348 32.888C178.348 33.5707 178.166 34.0933 177.804 34.456C177.441 34.8187 176.918 35 176.236 35H176.172C175.489 35 174.966 34.8187 174.604 34.456C174.241 34.0933 174.06 33.5707 174.06 32.888V20.664L167.66 33.688C167.446 34.136 167.169 34.4667 166.828 34.68C166.486 34.8933 166.06 35 165.548 35H165.42C164.908 35 164.481 34.8933 164.14 34.68C163.798 34.4667 163.521 34.136 163.308 33.688L156.908 20.664V32.888C156.908 33.5707 156.726 34.0933 156.364 34.456C156.001 34.8187 155.478 35 154.796 35H154.732C154.049 35 153.526 34.8187 153.164 34.456C152.801 34.0933 152.62 33.5707 152.62 32.888V13.4C152.62 12.7173 152.79 12.1947 153.132 11.832C153.473 11.4693 153.964 11.288 154.604 11.288H154.86C156.033 11.288 156.865 11.8 157.356 12.824L165.484 29.368L173.612 12.824C174.102 11.8 174.934 11.288 176.108 11.288H176.236C176.918 11.288 177.441 11.4693 177.804 11.832C178.166 12.1947 178.348 12.7173 178.348 13.4V32.888ZM198.125 32.952C198.125 33.6133 197.944 34.1253 197.581 34.488C197.24 34.8293 196.739 35 196.077 35H195.981C195.32 35 194.808 34.8293 194.445 34.488C194.104 34.1253 193.933 33.6133 193.933 32.952V29.528L194.829 26.648L193.933 23.608V20.088C193.933 19.4267 194.104 18.9253 194.445 18.584C194.808 18.2213 195.32 18.04 195.981 18.04H196.077C196.739 18.04 197.24 18.2213 197.581 18.584C197.944 18.9253 198.125 19.4267 198.125 20.088V32.952ZM189.325 31.672C190.328 31.672 191.203 31.4587 191.949 31.032C192.696 30.6053 193.272 30.008 193.677 29.24C194.083 28.4507 194.285 27.544 194.285 26.52C194.285 25.496 194.083 24.5893 193.677 23.8C193.272 23.0107 192.696 22.4027 191.949 21.976C191.203 21.5493 190.328 21.336 189.325 21.336C188.536 21.336 187.8 21.56 187.117 22.008C186.456 22.4347 185.933 23.0427 185.549 23.832C185.165 24.6213 184.973 25.5173 184.973 26.52C184.973 27.5227 185.165 28.4187 185.549 29.208C185.933 29.976 186.456 30.584 187.117 31.032C187.779 31.4587 188.515 31.672 189.325 31.672ZM189.005 35.352C187.405 35.352 185.965 34.9573 184.685 34.168C183.405 33.3787 182.403 32.312 181.677 30.968C180.952 29.6027 180.589 28.12 180.589 26.52C180.589 24.92 180.952 23.448 181.677 22.104C182.403 20.7387 183.405 19.6613 184.685 18.872C185.965 18.0827 187.405 17.688 189.005 17.688C190.584 17.688 191.928 18.1467 193.037 19.064C194.168 19.96 195.011 21.0907 195.565 22.456C196.12 23.8213 196.397 25.176 196.397 26.52C196.397 27.864 196.12 29.2187 195.565 30.584C195.011 31.9493 194.168 33.0907 193.037 34.008C191.928 34.904 190.584 35.352 189.005 35.352ZM200.728 32.664C200.302 32.1307 200.174 31.6187 200.344 31.128C200.515 30.6373 200.899 30.296 201.496 30.104L201.688 30.04C202.2 29.8693 202.627 29.8587 202.968 30.008C203.331 30.1573 203.779 30.4667 204.312 30.936C204.76 31.32 205.294 31.576 205.912 31.704C206.531 31.832 207.139 31.8107 207.736 31.64C208.334 31.448 208.846 31.1173 209.272 30.648C209.571 30.328 209.731 29.9867 209.752 29.624C209.774 29.24 209.624 28.9093 209.304 28.632C208.984 28.3547 208.504 28.1733 207.864 28.088L205.208 27.736C203.8 27.544 202.691 26.9893 201.88 26.072C201.091 25.1547 200.686 24.0987 200.664 22.904C200.664 21.7093 201.048 20.6747 201.816 19.8C202.648 18.8187 203.63 18.1893 204.76 17.912C205.912 17.6133 207.064 17.624 208.216 17.944C209.368 18.2427 210.382 18.744 211.256 19.448C211.79 19.896 212.024 20.3653 211.96 20.856C211.918 21.3467 211.63 21.752 211.096 22.072L210.968 22.136C210.499 22.4133 210.062 22.52 209.656 22.456C209.251 22.392 208.76 22.1787 208.184 21.816C207.822 21.5813 207.438 21.432 207.032 21.368C206.627 21.304 206.222 21.3467 205.816 21.496C205.432 21.624 205.08 21.8693 204.76 22.232C204.526 22.5093 204.398 22.8187 204.376 23.16C204.376 23.48 204.483 23.768 204.696 24.024C204.931 24.28 205.272 24.44 205.72 24.504L208.376 24.856C210.019 25.0693 211.267 25.6667 212.12 26.648C212.995 27.6293 213.422 28.7387 213.4 29.976C213.379 31.2133 212.963 32.2907 212.152 33.208C211.235 34.232 210.051 34.8933 208.6 35.192C207.15 35.4907 205.699 35.416 204.248 34.968C202.798 34.4987 201.624 33.7307 200.728 32.664ZM223.107 30.904C223.768 31.0107 224.259 31.224 224.579 31.544C224.899 31.864 225.059 32.3227 225.059 32.92V32.984C225.059 33.624 224.877 34.1253 224.515 34.488C224.152 34.8293 223.651 34.968 223.011 34.904C220.792 34.648 219.16 33.9547 218.115 32.824C217.069 31.672 216.547 30.1253 216.547 28.184V14.648C216.547 13.9867 216.717 13.4853 217.059 13.144C217.4 12.8027 217.901 12.632 218.563 12.632H218.627C219.288 12.632 219.789 12.8027 220.131 13.144C220.472 13.4853 220.643 13.9867 220.643 14.648V27.544C220.643 28.2693 220.707 28.856 220.835 29.304C220.984 29.752 221.229 30.104 221.571 30.36C221.933 30.616 222.445 30.7973 223.107 30.904ZM223.171 18.04C223.789 18.04 224.259 18.2 224.579 18.52C224.899 18.84 225.059 19.3093 225.059 19.928V19.96C225.059 20.5573 224.899 21.0267 224.579 21.368C224.259 21.688 223.789 21.848 223.171 21.848H215.267C214.669 21.848 214.2 21.688 213.859 21.368C213.539 21.0267 213.379 20.5573 213.379 19.96V19.928C213.379 19.3093 213.539 18.84 213.859 18.52C214.2 18.2 214.669 18.04 215.267 18.04H223.171ZM242.377 24.536C242.569 25.4747 242.398 26.2213 241.865 26.776C241.353 27.3093 240.606 27.576 239.625 27.576H238.889C238.889 26.1253 238.686 24.9413 238.281 24.024C237.897 23.0853 237.353 22.4133 236.649 22.008C235.966 21.5813 235.155 21.368 234.217 21.368C233.129 21.368 232.211 21.5707 231.465 21.976C230.739 22.36 230.185 22.936 229.801 23.704C229.417 24.472 229.225 25.4 229.225 26.488C229.225 27.6187 229.417 28.568 229.801 29.336C230.185 30.104 230.771 30.6907 231.561 31.096C232.35 31.48 233.342 31.672 234.537 31.672C235.091 31.672 235.625 31.576 236.137 31.384C236.649 31.1707 237.118 30.872 237.545 30.488C238.035 30.0827 238.483 29.848 238.889 29.784C239.315 29.72 239.763 29.848 240.233 30.168L240.329 30.232C240.883 30.616 241.193 31.0533 241.257 31.544C241.321 32.0133 241.118 32.472 240.649 32.92C239.774 33.688 238.803 34.2853 237.737 34.712C236.691 35.1387 235.625 35.352 234.537 35.352C232.681 35.352 231.059 34.968 229.673 34.2C228.286 33.432 227.209 32.376 226.441 31.032C225.694 29.688 225.321 28.1733 225.321 26.488C225.321 24.8027 225.694 23.2987 226.441 21.976C227.209 20.632 228.265 19.5867 229.609 18.84C230.974 18.072 232.51 17.688 234.217 17.688C235.497 17.688 236.691 17.944 237.801 18.456C238.931 18.968 239.902 19.736 240.713 20.76C241.523 21.784 242.078 23.0427 242.377 24.536ZM239.369 27.576H227.977V24.248H239.369V27.576ZM248.266 32.984C248.266 33.6453 248.095 34.1467 247.754 34.488C247.413 34.8293 246.911 35 246.25 35H246.186C245.525 35 245.023 34.8293 244.682 34.488C244.341 34.1467 244.17 33.6453 244.17 32.984V20.056C244.17 19.3947 244.341 18.8933 244.682 18.552C245.023 18.2107 245.525 18.04 246.186 18.04H246.25C246.911 18.04 247.413 18.2107 247.754 18.552C248.095 18.8933 248.266 19.3947 248.266 20.056V32.984ZM244.17 29.752C244.17 27.8533 244.458 26.0827 245.034 24.44C245.631 22.776 246.474 21.3787 247.562 20.248C248.671 19.096 249.951 18.328 251.402 17.944C252.042 17.7947 252.554 17.8907 252.938 18.232C253.322 18.552 253.514 19.032 253.514 19.672V19.736C253.514 20.3547 253.365 20.8347 253.066 21.176C252.767 21.496 252.309 21.7093 251.69 21.816C250.901 21.9653 250.25 22.232 249.738 22.616C249.247 23 248.874 23.544 248.618 24.248C248.383 24.9307 248.266 25.8053 248.266 26.872L244.17 29.752Z" fill="black"/>
<path d="M248.266 32.9839C248.266 33.6452 248.095 34.1466 247.754 34.4879C247.413 34.8292 246.911 34.9999 246.25 34.9999H246.186C245.525 34.9999 245.023 34.8292 244.682 34.4879C244.341 34.1466 244.17 33.6452 244.17 32.9839V20.0559C244.17 19.3946 244.341 18.8932 244.682 18.5519C245.023 18.2106 245.525 18.0399 246.186 18.0399H246.25C246.911 18.0399 247.413 18.2106 247.754 18.5519C248.095 18.8932 248.266 19.3946 248.266 20.0559V32.9839ZM244.17 29.7519C244.17 27.8532 244.458 26.0826 245.034 24.4399C245.631 22.7759 246.474 21.3786 247.562 20.2479C248.671 19.0959 249.951 18.3279 251.402 17.9439C252.042 17.7946 252.554 17.8906 252.938 18.2319C253.322 18.5519 253.514 19.0319 253.514 19.6719V19.7359C253.514 20.3546 253.365 20.8346 253.066 21.1759C252.767 21.4959 252.309 21.7092 251.69 21.8159C250.901 21.9652 250.25 22.2319 249.738 22.6159C249.247 22.9999 248.874 23.5439 248.618 24.2479C248.383 24.9306 248.266 25.8052 248.266 26.8719L244.17 29.7519Z" fill="white"/>
<path d="M242.377 24.536C242.569 25.4747 242.398 26.2213 241.865 26.776C241.353 27.3093 240.606 27.576 239.625 27.576H238.889C238.889 26.1253 238.686 24.9413 238.281 24.024C237.897 23.0853 237.353 22.4133 236.649 22.008C235.966 21.5813 235.155 21.368 234.217 21.368C233.129 21.368 232.211 21.5707 231.465 21.976C230.739 22.36 230.185 22.936 229.801 23.704C229.417 24.472 229.225 25.4 229.225 26.488C229.225 27.6187 229.417 28.568 229.801 29.336C230.185 30.104 230.771 30.6907 231.561 31.096C232.35 31.48 233.342 31.672 234.537 31.672C235.091 31.672 235.625 31.576 236.137 31.384C236.649 31.1707 237.118 30.872 237.545 30.488C238.035 30.0827 238.483 29.848 238.889 29.784C239.315 29.72 239.763 29.848 240.233 30.168L240.329 30.232C240.883 30.616 241.193 31.0533 241.257 31.544C241.321 32.0133 241.118 32.472 240.649 32.92C239.774 33.688 238.803 34.2853 237.737 34.712C236.691 35.1387 235.625 35.352 234.537 35.352C232.681 35.352 231.059 34.968 229.673 34.2C228.286 33.432 227.209 32.376 226.441 31.032C225.694 29.688 225.321 28.1733 225.321 26.488C225.321 24.8027 225.694 23.2987 226.441 21.976C227.209 20.632 228.265 19.5867 229.609 18.84C230.974 18.072 232.51 17.688 234.217 17.688C235.497 17.688 236.691 17.944 237.801 18.456C238.931 18.968 239.902 19.736 240.713 20.76C241.523 21.784 242.078 23.0427 242.377 24.536ZM239.369 27.576H227.977V24.248H239.369V27.576Z" fill="white"/>
<path d="M223.107 30.9041C223.768 31.0107 224.259 31.2241 224.579 31.5441C224.899 31.8641 225.059 32.3227 225.059 32.9201V32.9841C225.059 33.6241 224.877 34.1254 224.515 34.4881C224.152 34.8294 223.651 34.9681 223.011 34.9041C220.792 34.6481 219.16 33.9547 218.115 32.8241C217.069 31.6721 216.547 30.1254 216.547 28.1841V14.6481C216.547 13.9867 216.717 13.4854 217.059 13.1441C217.4 12.8027 217.901 12.6321 218.563 12.6321H218.627C219.288 12.6321 219.789 12.8027 220.131 13.1441C220.472 13.4854 220.643 13.9867 220.643 14.6481V27.5441C220.643 28.2694 220.707 28.8561 220.835 29.3041C220.984 29.7521 221.229 30.1041 221.571 30.3601C221.933 30.6161 222.445 30.7974 223.107 30.9041ZM223.171 18.0401C223.789 18.0401 224.259 18.2001 224.579 18.5201C224.899 18.8401 225.059 19.3094 225.059 19.9281V19.9601C225.059 20.5574 224.899 21.0267 224.579 21.3681C224.259 21.6881 223.789 21.8481 223.171 21.8481H215.267C214.669 21.8481 214.2 21.6881 213.859 21.3681C213.539 21.0267 213.379 20.5574 213.379 19.9601V19.9281C213.379 19.3094 213.539 18.8401 213.859 18.5201C214.2 18.2001 214.669 18.0401 215.267 18.0401H223.171Z" fill="white"/>
<path d="M200.728 32.6641C200.302 32.1307 200.174 31.6187 200.344 31.1281C200.515 30.6374 200.899 30.2961 201.496 30.1041L201.688 30.0401C202.2 29.8694 202.627 29.8587 202.968 30.0081C203.331 30.1574 203.779 30.4667 204.312 30.9361C204.76 31.3201 205.294 31.5761 205.912 31.7041C206.531 31.8321 207.139 31.8107 207.736 31.6401C208.334 31.4481 208.846 31.1174 209.272 30.6481C209.571 30.3281 209.731 29.9867 209.752 29.6241C209.774 29.2401 209.624 28.9094 209.304 28.6321C208.984 28.3547 208.504 28.1734 207.864 28.0881L205.208 27.7361C203.8 27.5441 202.691 26.9894 201.88 26.0721C201.091 25.1547 200.686 24.0987 200.664 22.9041C200.664 21.7094 201.048 20.6747 201.816 19.8001C202.648 18.8187 203.63 18.1894 204.76 17.9121C205.912 17.6134 207.064 17.6241 208.216 17.9441C209.368 18.2427 210.382 18.7441 211.256 19.4481C211.79 19.8961 212.024 20.3654 211.96 20.8561C211.918 21.3467 211.63 21.7521 211.096 22.0721L210.968 22.1361C210.499 22.4134 210.062 22.5201 209.656 22.4561C209.251 22.3921 208.76 22.1787 208.184 21.8161C207.822 21.5814 207.438 21.4321 207.032 21.3681C206.627 21.3041 206.222 21.3467 205.816 21.4961C205.432 21.6241 205.08 21.8694 204.76 22.2321C204.526 22.5094 204.398 22.8187 204.376 23.1601C204.376 23.4801 204.483 23.7681 204.696 24.0241C204.931 24.2801 205.272 24.4401 205.72 24.5041L208.376 24.8561C210.019 25.0694 211.267 25.6667 212.12 26.6481C212.995 27.6294 213.422 28.7387 213.4 29.9761C213.379 31.2134 212.963 32.2907 212.152 33.2081C211.235 34.2321 210.051 34.8934 208.6 35.1921C207.15 35.4907 205.699 35.4161 204.248 34.9681C202.798 34.4987 201.624 33.7307 200.728 32.6641Z" fill="white"/>
<path d="M198.125 32.952C198.125 33.6133 197.944 34.1253 197.581 34.488C197.24 34.8293 196.739 35 196.077 35H195.981C195.32 35 194.808 34.8293 194.445 34.488C194.104 34.1253 193.933 33.6133 193.933 32.952V29.528L194.829 26.648L193.933 23.608V20.088C193.933 19.4267 194.104 18.9253 194.445 18.584C194.808 18.2213 195.32 18.04 195.981 18.04H196.077C196.739 18.04 197.24 18.2213 197.581 18.584C197.944 18.9253 198.125 19.4267 198.125 20.088V32.952ZM189.325 31.672C190.328 31.672 191.203 31.4587 191.949 31.032C192.696 30.6053 193.272 30.008 193.677 29.24C194.083 28.4507 194.285 27.544 194.285 26.52C194.285 25.496 194.083 24.5893 193.677 23.8C193.272 23.0107 192.696 22.4027 191.949 21.976C191.203 21.5493 190.328 21.336 189.325 21.336C188.536 21.336 187.8 21.56 187.117 22.008C186.456 22.4347 185.933 23.0427 185.549 23.832C185.165 24.6213 184.973 25.5173 184.973 26.52C184.973 27.5227 185.165 28.4187 185.549 29.208C185.933 29.976 186.456 30.584 187.117 31.032C187.779 31.4587 188.515 31.672 189.325 31.672ZM189.005 35.352C187.405 35.352 185.965 34.9573 184.685 34.168C183.405 33.3787 182.403 32.312 181.677 30.968C180.952 29.6027 180.589 28.12 180.589 26.52C180.589 24.92 180.952 23.448 181.677 22.104C182.403 20.7387 183.405 19.6613 184.685 18.872C185.965 18.0827 187.405 17.688 189.005 17.688C190.584 17.688 191.928 18.1467 193.037 19.064C194.168 19.96 195.011 21.0907 195.565 22.456C196.12 23.8213 196.397 25.176 196.397 26.52C196.397 27.864 196.12 29.2187 195.565 30.584C195.011 31.9493 194.168 33.0907 193.037 34.008C191.928 34.904 190.584 35.352 189.005 35.352Z" fill="white"/>
<path d="M178.348 32.8881C178.348 33.5708 178.166 34.0934 177.804 34.4561C177.441 34.8188 176.918 35.0001 176.236 35.0001H176.172C175.489 35.0001 174.966 34.8188 174.604 34.4561C174.241 34.0934 174.06 33.5708 174.06 32.8881V20.6641L167.66 33.6881C167.446 34.1361 167.169 34.4668 166.828 34.6801C166.486 34.8934 166.06 35.0001 165.548 35.0001H165.42C164.908 35.0001 164.481 34.8934 164.14 34.6801C163.798 34.4668 163.521 34.1361 163.308 33.6881L156.908 20.6641V32.8881C156.908 33.5708 156.726 34.0934 156.364 34.4561C156.001 34.8188 155.478 35.0001 154.796 35.0001H154.732C154.049 35.0001 153.526 34.8188 153.164 34.4561C152.801 34.0934 152.62 33.5708 152.62 32.8881V13.4001C152.62 12.7174 152.79 12.1948 153.132 11.8321C153.473 11.4694 153.964 11.2881 154.604 11.2881H154.86C156.033 11.2881 156.865 11.8001 157.356 12.8241L165.484 29.3681L173.612 12.8241C174.102 11.8001 174.934 11.2881 176.108 11.2881H176.236C176.918 11.2881 177.441 11.4694 177.804 11.8321C178.166 12.1948 178.348 12.7174 178.348 13.4001V32.8881Z" fill="white"/>
<path d="M150.314 24.536C150.506 25.4747 150.335 26.2213 149.802 26.776C149.29 27.3093 148.543 27.576 147.562 27.576H146.826C146.826 26.1253 146.623 24.9413 146.218 24.024C145.834 23.0853 145.29 22.4133 144.586 22.008C143.903 21.5813 143.093 21.368 142.154 21.368C141.066 21.368 140.149 21.5707 139.402 21.976C138.677 22.36 138.122 22.936 137.738 23.704C137.354 24.472 137.162 25.4 137.162 26.488C137.162 27.6187 137.354 28.568 137.738 29.336C138.122 30.104 138.709 30.6907 139.498 31.096C140.287 31.48 141.279 31.672 142.474 31.672C143.029 31.672 143.562 31.576 144.074 31.384C144.586 31.1707 145.055 30.872 145.482 30.488C145.973 30.0827 146.421 29.848 146.826 29.784C147.253 29.72 147.701 29.848 148.17 30.168L148.266 30.232C148.821 30.616 149.13 31.0533 149.194 31.544C149.258 32.0133 149.055 32.472 148.586 32.92C147.711 33.688 146.741 34.2853 145.674 34.712C144.629 35.1387 143.562 35.352 142.474 35.352C140.618 35.352 138.997 34.968 137.61 34.2C136.223 33.432 135.146 32.376 134.378 31.032C133.631 29.688 133.258 28.1733 133.258 26.488C133.258 24.8027 133.631 23.2987 134.378 21.976C135.146 20.632 136.202 19.5867 137.546 18.84C138.911 18.072 140.447 17.688 142.154 17.688C143.434 17.688 144.629 17.944 145.738 18.456C146.869 18.968 147.839 19.736 148.65 20.76C149.461 21.784 150.015 23.0427 150.314 24.536ZM147.306 27.576H135.914V24.248H147.306V27.576Z" fill="white"/>
<path d="M122.493 35.352C120.893 35.352 119.453 34.9573 118.173 34.168C116.893 33.3787 115.89 32.312 115.165 30.968C114.439 29.6027 114.077 28.12 114.077 26.52C114.077 24.92 114.439 23.448 115.165 22.104C115.89 20.7387 116.893 19.6613 118.173 18.872C119.453 18.0827 120.893 17.688 122.493 17.688C124.071 17.688 125.415 18.1467 126.525 19.064C127.655 19.96 128.498 21.0907 129.053 22.456C129.607 23.8213 129.885 25.176 129.885 26.52C129.885 27.864 129.607 29.2187 129.053 30.584C128.498 31.9493 127.655 33.0907 126.525 34.008C125.415 34.904 124.071 35.352 122.493 35.352ZM122.813 31.672C123.815 31.672 124.69 31.4587 125.437 31.032C126.183 30.6053 126.759 30.008 127.165 29.24C127.57 28.4507 127.773 27.544 127.773 26.52C127.773 25.496 127.57 24.5893 127.165 23.8C126.759 23.0107 126.183 22.4027 125.437 21.976C124.69 21.5493 123.815 21.336 122.813 21.336C122.023 21.336 121.287 21.56 120.605 22.008C119.943 22.4347 119.421 23.0427 119.037 23.832C118.653 24.6213 118.461 25.5173 118.461 26.52C118.461 27.5227 118.653 28.4187 119.037 29.208C119.421 29.976 119.943 30.584 120.605 31.032C121.266 31.4587 122.002 31.672 122.813 31.672ZM115.229 39.48C114.738 39.0107 114.525 38.5307 114.589 38.04C114.653 37.5493 114.951 37.112 115.485 36.728L115.581 36.664C116.093 36.3013 116.562 36.152 116.989 36.216C117.437 36.3013 117.906 36.5573 118.397 36.984C118.909 37.432 119.485 37.7627 120.125 37.976C120.786 38.2107 121.565 38.328 122.461 38.328C123.463 38.328 124.338 38.1253 125.085 37.72C125.831 37.3147 126.407 36.7067 126.813 35.896C127.218 35.1067 127.421 34.1467 127.421 33.016V29.272L128.061 26.488L127.421 23.48V20.056C127.421 19.3947 127.591 18.8933 127.933 18.552C128.274 18.2107 128.775 18.04 129.437 18.04H129.501C130.162 18.04 130.663 18.2107 131.005 18.552C131.346 18.8933 131.517 19.3947 131.517 20.056V33.016C131.517 34.7867 131.111 36.376 130.301 37.784C129.49 39.192 128.391 40.2907 127.005 41.08C125.618 41.8907 124.103 42.296 122.461 42.296C120.967 42.296 119.613 42.04 118.397 41.528C117.202 41.0373 116.146 40.3547 115.229 39.48Z" fill="white"/>
<path d="M112.338 32.952C112.338 33.6133 112.156 34.1253 111.794 34.488C111.452 34.8293 110.951 35 110.29 35H110.194C109.532 35 109.02 34.8293 108.658 34.488C108.316 34.1253 108.146 33.6133 108.146 32.952V29.528L109.042 26.648L108.146 23.608V20.088C108.146 19.4267 108.316 18.9253 108.658 18.584C109.02 18.2213 109.532 18.04 110.194 18.04H110.29C110.951 18.04 111.452 18.2213 111.794 18.584C112.156 18.9253 112.338 19.4267 112.338 20.088V32.952ZM103.538 31.672C104.54 31.672 105.415 31.4587 106.162 31.032C106.908 30.6053 107.484 30.008 107.89 29.24C108.295 28.4507 108.498 27.544 108.498 26.52C108.498 25.496 108.295 24.5893 107.89 23.8C107.484 23.0107 106.908 22.4027 106.162 21.976C105.415 21.5493 104.54 21.336 103.538 21.336C102.748 21.336 102.012 21.56 101.33 22.008C100.668 22.4347 100.146 23.0427 99.7618 23.832C99.3778 24.6213 99.1858 25.5173 99.1858 26.52C99.1858 27.5227 99.3778 28.4187 99.7618 29.208C100.146 29.976 100.668 30.584 101.33 31.032C101.991 31.4587 102.727 31.672 103.538 31.672ZM103.218 35.352C101.618 35.352 100.178 34.9573 98.8978 34.168C97.6178 33.3787 96.6151 32.312 95.8898 30.968C95.1644 29.6027 94.8018 28.12 94.8018 26.52C94.8018 24.92 95.1644 23.448 95.8898 22.104C96.6151 20.7387 97.6178 19.6613 98.8978 18.872C100.178 18.0827 101.618 17.688 103.218 17.688C104.796 17.688 106.14 18.1467 107.25 19.064C108.38 19.96 109.223 21.0907 109.778 22.456C110.332 23.8213 110.61 25.176 110.61 26.52C110.61 27.864 110.332 29.2187 109.778 30.584C109.223 31.9493 108.38 33.0907 107.25 34.008C106.14 34.904 104.796 35.352 103.218 35.352Z" fill="white"/>
<path d="M71.5722 32.984C71.5722 33.6453 71.4015 34.1467 71.0602 34.488C70.7189 34.8293 70.2175 35 69.5562 35H69.4922C68.8522 35 68.3509 34.8293 67.9882 34.488C67.6469 34.1467 67.4762 33.6453 67.4762 32.984V20.056C67.4762 19.3947 67.6469 18.8933 67.9882 18.552C68.3509 18.2107 68.8522 18.04 69.4922 18.04H69.5562C70.2175 18.04 70.7189 18.2107 71.0602 18.552C71.4015 18.8933 71.5722 19.3947 71.5722 20.056V32.984ZM67.4762 29.752C67.4762 27.6187 67.8709 25.624 68.6602 23.768C69.4495 21.912 70.5375 20.44 71.9242 19.352C73.3109 18.2427 74.8575 17.688 76.5642 17.688C77.6309 17.688 78.6015 17.9973 79.4762 18.616C80.3509 19.2347 81.0442 20.1307 81.5562 21.304C82.0682 22.4773 82.3242 23.864 82.3242 25.464V32.984C82.3242 33.6453 82.1535 34.1467 81.8122 34.488C81.4709 34.8293 80.9695 35 80.3082 35H80.2442C79.6042 35 79.1029 34.8293 78.7402 34.488C78.3989 34.1467 78.2282 33.6453 78.2282 32.984V25.464C78.2282 24.568 78.1002 23.8427 77.8442 23.288C77.6095 22.712 77.2789 22.296 76.8522 22.04C76.4469 21.784 75.9882 21.656 75.4762 21.656C74.7082 21.656 74.0362 21.816 73.4602 22.136C72.8842 22.456 72.4255 23 72.0842 23.768C71.7429 24.536 71.5722 25.5707 71.5722 26.872L67.4762 29.752ZM78.2282 29.752C78.2282 27.6187 78.6229 25.624 79.4122 23.768C80.2015 21.912 81.2895 20.44 82.6762 19.352C84.0629 18.2427 85.6095 17.688 87.3162 17.688C88.3829 17.688 89.3535 17.9973 90.2282 18.616C91.1029 19.2347 91.7962 20.1307 92.3082 21.304C92.8202 22.4773 93.0762 23.864 93.0762 25.464V32.984C93.0762 33.6453 92.9055 34.1467 92.5642 34.488C92.2229 34.8293 91.7215 35 91.0602 35H90.9962C90.3562 35 89.8549 34.8293 89.4922 34.488C89.1509 34.1467 88.9802 33.6453 88.9802 32.984V25.464C88.9802 24.568 88.8522 23.8427 88.5962 23.288C88.3615 22.712 88.0309 22.296 87.6042 22.04C87.1989 21.784 86.7402 21.656 86.2282 21.656C85.4602 21.656 84.7882 21.816 84.2122 22.136C83.6362 22.456 83.1775 23 82.8362 23.768C82.4949 24.536 82.3242 25.5707 82.3242 26.872L78.2282 29.752Z" fill="white"/>
<path d="M64.72 32.8881C64.72 33.5708 64.5387 34.0934 64.176 34.4561C63.8133 34.8188 63.2907 35.0001 62.608 35.0001H62.544C61.8613 35.0001 61.3387 34.8188 60.976 34.4561C60.6133 34.0934 60.432 33.5708 60.432 32.8881V13.4001C60.432 12.7174 60.6133 12.1948 60.976 11.8321C61.3387 11.4694 61.8613 11.2881 62.544 11.2881H62.608C63.2907 11.2881 63.8133 11.4694 64.176 11.8321C64.5387 12.1948 64.72 12.7174 64.72 13.4001V32.8881Z" fill="white"/>
<defs>
<filter id="filter0_f_2096_4" x="15" y="14" width="70" height="70" filterUnits="userSpaceOnUse" color-interpolation-filters="sRGB">
<feFlood flood-opacity="0" result="BackgroundImageFix"/>
<feBlend mode="normal" in="SourceGraphic" in2="BackgroundImageFix" result="shape"/>
<feGaussianBlur stdDeviation="8" result="effect1_foregroundBlur_2096_4"/>
</filter>
<filter id="filter1_f_2096_4" x="-35" y="21" width="66" height="66" filterUnits="userSpaceOnUse" color-interpolation-filters="sRGB">
<feFlood flood-opacity="0" result="BackgroundImageFix"/>
<feBlend mode="normal" in="SourceGraphic" in2="BackgroundImageFix" result="shape"/>
<feGaussianBlur stdDeviation="8" result="effect1_foregroundBlur_2096_4"/>
</filter>
<filter id="filter2_f_2096_4" x="-12" y="28" width="66" height="66" filterUnits="userSpaceOnUse" color-interpolation-filters="sRGB">
<feFlood flood-opacity="0" result="BackgroundImageFix"/>
<feBlend mode="normal" in="SourceGraphic" in2="BackgroundImageFix" result="shape"/>
<feGaussianBlur stdDeviation="8" result="effect1_foregroundBlur_2096_4"/>
</filter>
<filter id="filter3_f_2096_4" x="29" y="1" width="50" height="50" filterUnits="userSpaceOnUse" color-interpolation-filters="sRGB">
<feFlood flood-opacity="0" result="BackgroundImageFix"/>
<feBlend mode="normal" in="SourceGraphic" in2="BackgroundImageFix" result="shape"/>
<feGaussianBlur stdDeviation="8" result="effect1_foregroundBlur_2096_4"/>
</filter>
<linearGradient id="paint0_linear_2096_4" x1="24" y1="6" x2="24" y2="38.5" gradientUnits="userSpaceOnUse">
<stop stop-color="#0257FB"/>
<stop offset="1" stop-color="#2BB5FE"/>
</linearGradient>
<clipPath id="clip0_2096_4">
<rect width="48" height="48" rx="9" fill="white"/>
</clipPath>
</defs>
</svg>
