<svg width="260" height="48" viewBox="0 0 260 48" fill="none" xmlns="http://www.w3.org/2000/svg">
<g clip-path="url(#clip0_2109_142)">
<rect width="48" height="48" fill="white"/>
<g filter="url(#filter0_f_2109_142)">
<circle cx="50" cy="49" r="19" fill="#B9F2FF"/>
</g>
<g filter="url(#filter1_f_2109_142)">
<circle cx="-2" cy="54" r="17" fill="#B9F2FF"/>
</g>
<g filter="url(#filter2_f_2109_142)">
<circle cx="21" cy="61" r="17" fill="#B9F2FF"/>
</g>
<g filter="url(#filter3_f_2109_142)">
<circle cx="54" cy="26" r="9" fill="#B9F2FF"/>
</g>
<path d="M15.0002 9.49964C10.8581 9.49964 7.50032 12.8576 7.50023 16.9996V30.9996C7.50023 35.1418 10.8581 38.4996 15.0002 38.4996H33.0002C37.1423 38.4996 40.5002 35.1417 40.5002 30.9996V25.9996C40.5002 25.1713 39.8285 24.4997 39.0002 24.4996C38.1719 24.4996 37.5003 25.1713 37.5002 25.9996V30.9996C37.5002 33.4849 35.4854 35.4996 33.0002 35.4996H15.0002C12.515 35.4996 10.5002 33.4849 10.5002 30.9996V16.9996C10.5003 14.5144 12.515 12.4996 15.0002 12.4996H22.0002C22.8286 12.4996 23.5002 11.828 23.5002 10.9996C23.5002 10.1713 22.8285 9.49973 22.0002 9.49964H15.0002ZM24.4827 19.7926C24.3496 19.2997 23.6498 19.2996 23.5168 19.7926L23.176 21.0592C22.898 22.0915 22.0921 22.8984 21.0598 23.1764L19.7932 23.5172C19.3 23.6501 19.2999 24.3502 19.7932 24.483L21.0598 24.8239C22.0919 25.1019 22.898 25.908 23.176 26.9401L23.5168 28.2067C23.6497 28.7 24.3498 28.6999 24.4827 28.2067L24.8235 26.9401C25.1015 25.9078 25.9084 25.1018 26.9407 24.8239L28.2073 24.483C28.7003 24.3501 28.7002 23.6503 28.2073 23.5172L26.9407 23.1764C25.9082 22.8984 25.1015 22.0916 24.8235 21.0592L24.4827 19.7926ZM34.7239 6.6891C34.5243 5.94972 33.4751 5.94961 33.2756 6.6891L32.4778 9.65492C32.1071 11.0314 31.0311 12.1066 29.6545 12.4772L26.6897 13.276C25.9499 13.4754 25.9498 14.525 26.6897 14.7243L29.6545 15.5221C31.0311 15.8927 32.1071 16.9688 32.4778 18.3453L33.2756 21.3102C33.4749 22.0501 34.5245 22.0499 34.7239 21.3102L35.5227 18.3453C35.8933 16.9688 36.9684 15.8928 38.345 15.5221L41.3108 14.7243C42.0503 14.5248 42.0502 13.4756 41.3108 13.276L38.345 12.4772C36.9685 12.1065 35.8934 11.0313 35.5227 9.65492L34.7239 6.6891Z" fill="url(#paint0_linear_2109_142)"/>
</g>
<path d="M60.24 12.472C60.24 11.5547 60.4747 10.8613 60.944 10.392C61.4133 9.90133 62.1067 9.656 63.024 9.656H84.976C85.8933 9.656 86.5867 9.90133 87.056 10.392C87.5253 10.8613 87.76 11.5547 87.76 12.472V35.064C87.76 35.9813 87.5253 36.6747 87.056 37.144C86.5867 37.6347 85.8933 37.88 84.976 37.88H63.024C62.1067 37.88 61.4133 37.6347 60.944 37.144C60.4747 36.6747 60.24 35.9813 60.24 35.064V12.472ZM84.592 12.76H63.408V34.776H84.592V12.76ZM79.76 30.904C80.6347 31.0107 81.0187 31.5013 80.912 32.376V32.504C80.8053 33.4 80.304 33.784 79.408 33.656L68.272 32.344C67.3973 32.2373 67.0133 31.7467 67.12 30.872V30.744C67.2267 29.848 67.728 29.464 68.624 29.592L79.76 30.904ZM78.16 26.488C79.0347 26.5733 79.4187 27.0533 79.312 27.928V28.056C79.184 28.9307 78.6933 29.3147 77.84 29.208L69.872 28.216C68.9973 28.1307 68.6133 27.6507 68.72 26.776V26.648C68.8267 25.7947 69.3173 25.4107 70.192 25.496L78.16 26.488ZM67.824 13.496C68.336 13.496 68.7093 13.5813 68.944 13.752C69.1787 13.9013 69.296 14.1787 69.296 14.584L69.04 14.52H78.864C79.6107 14.52 80.208 14.7013 80.656 15.064C81.1253 15.4053 81.36 15.9067 81.36 16.568C81.36 17.208 81.0827 17.9653 80.528 18.84C79.632 20.0347 78.448 21.112 76.976 22.072C75.504 23.0107 73.8293 23.8107 71.952 24.472C70.096 25.112 68.1227 25.592 66.032 25.912C65.136 26.04 64.6133 25.6453 64.464 24.728V24.6C64.336 23.704 64.7307 23.1813 65.648 23.032C68.5493 22.6053 71.0347 21.912 73.104 20.952C75.1733 19.992 76.7627 18.808 77.872 17.4H68.88C68.0053 17.4 67.3333 17.208 66.864 16.824C66.416 16.44 66.192 15.832 66.192 15V14.648C66.192 14.3067 66.32 14.0293 66.576 13.816C66.832 13.6027 67.2053 13.496 67.696 13.496H67.824ZM70 18.136C71.8133 19.4587 73.7227 20.5253 75.728 21.336C77.7333 22.1253 79.888 22.6907 82.192 23.032C83.1093 23.1813 83.504 23.704 83.376 24.6V24.728C83.2267 25.6453 82.704 26.04 81.808 25.912C78.9707 25.4853 76.368 24.792 74 23.832C71.6533 22.8507 69.68 21.72 68.08 20.44C67.3333 19.8427 67.2693 19.192 67.888 18.488L67.952 18.36C68.5493 17.6347 69.232 17.56 70 18.136ZM97.2 10.072C98.2667 10.072 98.8 10.6053 98.8 11.672V24.056C98.8 26.4027 98.384 28.7387 97.552 31.064C96.7413 33.3893 95.472 35.48 93.744 37.336C92.976 38.104 92.2293 38.072 91.504 37.24L91.44 37.176C91.0773 36.7707 90.896 36.376 90.896 35.992C90.9173 35.608 91.12 35.2133 91.504 34.808C92.8907 33.2933 93.8933 31.6187 94.512 29.784C95.152 27.9493 95.472 26.04 95.472 24.056V11.672C95.472 10.6053 96.0053 10.072 97.072 10.072H97.2ZM110.288 9.176C111.355 9.176 111.888 9.70933 111.888 10.776V16.888C111.888 17.976 111.355 18.52 110.288 18.52H110.16C109.093 18.52 108.56 17.976 108.56 16.888V10.776C108.56 9.70933 109.093 9.176 110.16 9.176H110.288ZM118.832 16.92C119.856 16.92 120.368 17.432 120.368 18.456V18.584C120.368 19.5867 119.856 20.088 118.832 20.088H98.672C97.648 20.088 97.136 19.5867 97.136 18.584V18.456C97.136 17.432 97.648 16.92 98.672 16.92H118.832ZM114.192 25.368C115.131 25.368 115.845 25.6133 116.336 26.104C116.848 26.5733 117.104 27.2987 117.104 28.28V36.76C117.104 37.8267 116.571 38.36 115.504 38.36H115.376C114.288 38.36 113.744 37.8267 113.744 36.76V28.504H98.64C97.6373 28.504 97.136 28.0027 97.136 27V26.872C97.136 25.8693 97.6373 25.368 98.64 25.368H114.192ZM149.776 11.128C150.651 11.128 151.312 11.352 151.76 11.8C152.208 12.248 152.432 12.9093 152.432 13.784V17.272C152.432 18.1467 152.208 18.808 151.76 19.256C151.333 19.704 150.672 19.928 149.776 19.928H136.336C135.419 19.928 134.96 19.4693 134.96 18.552V18.424C134.96 17.5067 135.419 17.048 136.336 17.048H149.424V14.008H136.464V23.896C136.464 26.3493 136.336 28.5893 136.08 30.616C135.824 32.6427 135.387 34.6373 134.768 36.6C134.469 37.5387 133.861 37.8587 132.944 37.56L132.816 37.496C131.899 37.1973 131.589 36.568 131.888 35.608C132.464 33.8373 132.859 32.0347 133.072 30.2C133.307 28.344 133.424 26.2427 133.424 23.896V13.784C133.424 12.9093 133.648 12.248 134.096 11.8C134.544 11.352 135.205 11.128 136.08 11.128H149.776ZM143.376 9.144C144.336 9.144 144.816 9.61333 144.816 10.552V11.128C144.816 12.088 144.336 12.568 143.376 12.568H143.024C142.064 12.568 141.584 12.088 141.584 11.128V10.584C141.584 9.624 142.064 9.144 143.024 9.144H143.376ZM146.928 23.48C147.653 23.48 148.016 23.8427 148.016 24.568V36.6C148.016 37.3467 147.653 37.72 146.928 37.72H146.8C146.053 37.72 145.68 37.3467 145.68 36.6V24.568C145.68 23.8427 146.053 23.48 146.8 23.48H146.928ZM142.832 23.48C143.557 23.48 143.92 23.8427 143.92 24.568V36.6C143.92 37.3467 143.557 37.72 142.832 37.72H142.704C141.979 37.72 141.616 37.3467 141.616 36.6V24.568C141.616 23.8427 141.979 23.48 142.704 23.48H142.832ZM149.776 29.08C150.715 29.08 151.184 29.5493 151.184 30.488V30.616C151.184 31.576 150.715 32.056 149.776 32.056H139.824C138.885 32.056 138.416 31.576 138.416 30.616V30.488C138.416 29.5493 138.885 29.08 139.824 29.08H149.776ZM149.936 21.944C150.747 21.944 151.365 22.1573 151.792 22.584C152.24 23.0107 152.464 23.64 152.464 24.472V35.48C152.464 36.2907 152.251 36.9093 151.824 37.336C151.397 37.784 150.768 38.008 149.936 38.008H149.584C148.944 38.008 148.624 37.5173 148.624 36.536V36.408C148.624 35.4053 148.944 34.904 149.584 34.904H149.936V25.016H139.664V37.144C139.664 37.9547 139.269 38.36 138.48 38.36H138.352C137.541 38.36 137.136 37.9547 137.136 37.144V24.472C137.136 23.6613 137.349 23.0427 137.776 22.616C138.203 22.168 138.832 21.944 139.664 21.944H149.936ZM130.096 34.072C131.163 34.072 131.696 34.6053 131.696 35.672V35.8C131.696 36.8667 131.163 37.4 130.096 37.4H124.56C123.493 37.4 122.96 36.8667 122.96 35.8V35.672C122.96 34.6053 123.493 34.072 124.56 34.072H130.096ZM131.504 17.72C132.357 18.1893 132.549 18.8507 132.08 19.704L127.696 27.224H130.224C131.205 27.224 131.696 27.7253 131.696 28.728V28.856C131.696 29.8373 131.205 30.328 130.224 30.328H127.184C125.669 30.328 124.699 29.9867 124.272 29.304C123.867 28.6213 124.037 27.608 124.784 26.264L129.488 18.232C129.936 17.4 130.565 17.208 131.376 17.656L131.504 17.72ZM130.192 9.752C131.024 10.2213 131.205 10.872 130.736 11.704L126.352 19.512L128.144 20.728C128.933 21.2827 129.061 21.9547 128.528 22.744L128.464 22.872C127.931 23.6827 127.259 23.8107 126.448 23.256L124.432 21.88C123.749 21.432 123.333 20.9093 123.184 20.312C123.035 19.7147 123.163 19.0533 123.568 18.328L128.144 10.232C128.592 9.42133 129.232 9.24 130.064 9.688L130.192 9.752ZM168.56 12.248C168.56 10.4773 169.445 9.592 171.216 9.592H180.592C182.341 9.592 183.216 10.4773 183.216 12.248V15.096C183.216 16.8667 182.341 17.752 180.592 17.752H171.216C169.445 17.752 168.56 16.8667 168.56 15.096V12.248ZM180.112 12.344H171.664V15H180.112V12.344ZM165.84 29.592C166.821 29.592 167.312 30.0827 167.312 31.064V31.224C167.312 32.2053 166.821 32.696 165.84 32.696H156.752C155.749 32.696 155.248 32.1947 155.248 31.192V31.096C155.248 30.0933 155.749 29.592 156.752 29.592H165.84ZM162.224 24.056C163.269 24.056 163.792 24.568 163.792 25.592V36.856C163.792 37.88 163.269 38.392 162.224 38.392H162.096C161.072 38.392 160.56 37.88 160.56 36.856V25.592C160.56 24.568 161.072 24.056 162.096 24.056H162.224ZM183.472 33.208C184.411 33.208 184.88 33.6773 184.88 34.616V34.744C184.88 35.6827 184.411 36.152 183.472 36.152H168.336C167.397 36.152 166.928 35.6827 166.928 34.744V34.616C166.928 33.6773 167.397 33.208 168.336 33.208H183.472ZM162.48 17.592C163.397 17.592 163.856 18.0507 163.856 18.968V22.552C163.856 23.4693 163.397 23.928 162.48 23.928H162.352C161.435 23.928 160.976 23.4693 160.976 22.552V18.968C160.976 18.0507 161.435 17.592 162.352 17.592H162.48ZM170.352 20.856C171.312 20.856 171.792 21.336 171.792 22.296V33.208C171.792 34.1893 171.312 34.68 170.352 34.68H170.224C169.264 34.68 168.784 34.1893 168.784 33.208V22.296C168.784 21.336 169.264 20.856 170.224 20.856H170.352ZM161.616 9.4C162.512 9.67733 162.821 10.2747 162.544 11.192L158.864 22.456H165.232C166.213 22.456 166.704 22.936 166.704 23.896V24.024C166.704 24.984 166.213 25.464 165.232 25.464H158.48C157.264 25.464 156.432 25.176 155.984 24.6C155.536 24.0027 155.504 23.1173 155.888 21.944L159.664 10.296C159.963 9.4 160.571 9.08 161.488 9.336L161.616 9.4ZM180.08 28.6C180.955 28.6 181.392 29.048 181.392 29.944V30.072C181.392 30.9467 180.955 31.384 180.08 31.384H171.728C170.853 31.384 170.416 30.9467 170.416 30.072V29.944C170.416 29.048 170.853 28.6 171.728 28.6H180.08ZM165.456 12.536C166.459 12.536 166.96 13.0267 166.96 14.008V14.168C166.96 15.1493 166.469 15.64 165.488 15.64H157.168C156.165 15.64 155.664 15.1387 155.664 14.136V14.04C155.664 13.0373 156.165 12.536 157.168 12.536H165.456ZM180.08 24.12C180.955 24.12 181.392 24.568 181.392 25.464V25.592C181.392 26.4667 180.955 26.904 180.08 26.904H171.728C170.853 26.904 170.416 26.4667 170.416 25.592V25.464C170.416 24.568 170.853 24.12 171.728 24.12H180.08ZM181.488 20.856C182.469 20.856 182.96 21.336 182.96 22.296V37.08C182.96 38.04 182.469 38.52 181.488 38.52H181.36C180.4 38.52 179.92 38.04 179.92 37.08V22.296C179.92 21.336 180.4 20.856 181.36 20.856H181.488ZM183.152 19.384C184.091 19.384 184.56 19.8533 184.56 20.792V20.92C184.56 21.8587 184.091 22.328 183.152 22.328H168.624C167.685 22.328 167.216 21.8587 167.216 20.92V20.792C167.216 19.8533 167.685 19.384 168.624 19.384H183.152ZM214.672 15.96C215.717 15.96 216.24 16.4827 216.24 17.528V17.656C216.24 18.7013 215.717 19.224 214.672 19.224H189.328C188.283 19.224 187.76 18.7013 187.76 17.656V17.528C187.76 16.4827 188.283 15.96 189.328 15.96H214.672ZM201.968 9.144C203.035 9.144 203.568 9.67733 203.568 10.744V14.04C203.568 23.96 199.088 31.864 190.128 37.752C189.232 38.328 188.496 38.168 187.92 37.272L187.856 37.144C187.301 36.248 187.483 35.5013 188.4 34.904C192.411 32.2373 195.387 29.208 197.328 25.816C199.269 22.4027 200.24 18.4773 200.24 14.04V10.744C200.24 9.67733 200.773 9.144 201.84 9.144H201.968ZM202.352 17.464C203.376 17.3573 203.995 17.8373 204.208 18.904C204.827 22.168 206.075 25.1227 207.952 27.768C209.851 30.392 212.4 32.7707 215.6 34.904C216.517 35.5013 216.699 36.248 216.144 37.144L216.08 37.272C215.504 38.168 214.768 38.328 213.872 37.752C210.053 35.2347 207.024 32.376 204.784 29.176C202.565 25.976 201.253 22.6693 200.848 19.256C200.677 18.2107 201.136 17.6133 202.224 17.464H202.352ZM227.376 9.176C228.357 9.176 228.848 9.66667 228.848 10.648V23.32C228.848 26.4133 228.411 29.1013 227.536 31.384C226.683 33.6453 225.189 35.7573 223.056 37.72C222.309 38.3813 221.616 38.3173 220.976 37.528L220.912 37.4C220.613 37.016 220.475 36.6533 220.496 36.312C220.539 35.9707 220.752 35.6293 221.136 35.288C222.331 34.1787 223.259 33.048 223.92 31.896C224.603 30.7227 225.083 29.4533 225.36 28.088C225.637 26.7227 225.776 25.1333 225.776 23.32V10.648C225.776 9.66667 226.267 9.176 227.248 9.176H227.376ZM221.488 11.384C222.405 11.384 222.864 11.8427 222.864 12.76V28.888C222.864 29.8267 222.405 30.296 221.488 30.296H221.36C220.421 30.296 219.952 29.8267 219.952 28.888V12.76C219.952 11.8427 220.421 11.384 221.36 11.384H221.488ZM246.96 10.104C248.027 10.104 248.56 10.6373 248.56 11.704V11.832C248.56 12.8987 248.027 13.432 246.96 13.432H232.464C231.376 13.432 230.832 12.8987 230.832 11.832V11.704C230.832 10.6373 231.376 10.104 232.464 10.104H246.96ZM239.792 11.768C240.773 11.768 241.264 12.2587 241.264 13.24V36.952C241.264 37.9333 240.773 38.424 239.792 38.424H239.664C238.683 38.424 238.192 37.9333 238.192 36.952V13.24C238.192 12.2587 238.683 11.768 239.664 11.768H239.792ZM245.264 17.24C246.181 17.24 246.885 17.4853 247.376 17.976C247.867 18.4453 248.112 19.1387 248.112 20.056V31.544C248.112 32.4613 247.867 33.1653 247.376 33.656C246.907 34.1467 246.203 34.392 245.264 34.392H244.496C243.472 34.392 242.96 33.8693 242.96 32.824V32.696C242.96 31.6507 243.472 31.128 244.496 31.128H245.04V20.472H234.384V33.176C234.384 34.1573 233.893 34.648 232.912 34.648H232.784C231.803 34.648 231.312 34.1573 231.312 33.176V20.056C231.312 19.1387 231.547 18.4453 232.016 17.976C232.485 17.4853 233.189 17.24 234.128 17.24H245.264Z" fill="white"/>
<defs>
<filter id="filter0_f_2109_142" x="15" y="14" width="70" height="70" filterUnits="userSpaceOnUse" color-interpolation-filters="sRGB">
<feFlood flood-opacity="0" result="BackgroundImageFix"/>
<feBlend mode="normal" in="SourceGraphic" in2="BackgroundImageFix" result="shape"/>
<feGaussianBlur stdDeviation="8" result="effect1_foregroundBlur_2109_142"/>
</filter>
<filter id="filter1_f_2109_142" x="-35" y="21" width="66" height="66" filterUnits="userSpaceOnUse" color-interpolation-filters="sRGB">
<feFlood flood-opacity="0" result="BackgroundImageFix"/>
<feBlend mode="normal" in="SourceGraphic" in2="BackgroundImageFix" result="shape"/>
<feGaussianBlur stdDeviation="8" result="effect1_foregroundBlur_2109_142"/>
</filter>
<filter id="filter2_f_2109_142" x="-12" y="28" width="66" height="66" filterUnits="userSpaceOnUse" color-interpolation-filters="sRGB">
<feFlood flood-opacity="0" result="BackgroundImageFix"/>
<feBlend mode="normal" in="SourceGraphic" in2="BackgroundImageFix" result="shape"/>
<feGaussianBlur stdDeviation="8" result="effect1_foregroundBlur_2109_142"/>
</filter>
<filter id="filter3_f_2109_142" x="29" y="1" width="50" height="50" filterUnits="userSpaceOnUse" color-interpolation-filters="sRGB">
<feFlood flood-opacity="0" result="BackgroundImageFix"/>
<feBlend mode="normal" in="SourceGraphic" in2="BackgroundImageFix" result="shape"/>
<feGaussianBlur stdDeviation="8" result="effect1_foregroundBlur_2109_142"/>
</filter>
<linearGradient id="paint0_linear_2109_142" x1="24" y1="6" x2="24" y2="38.5" gradientUnits="userSpaceOnUse">
<stop stop-color="#0257FB"/>
<stop offset="1" stop-color="#2BB5FE"/>
</linearGradient>
<clipPath id="clip0_2109_142">
<rect width="48" height="48" rx="9" fill="white"/>
</clipPath>
</defs>
</svg>
